<?xml version="1.0" encoding="utf-8" standalone="no"?>
<!DOCTYPE svg PUBLIC "-//W3C//DTD SVG 1.1//EN"
  "http://www.w3.org/Graphics/SVG/1.1/DTD/svg11.dtd">
<svg xmlns:xlink="http://www.w3.org/1999/xlink" width="460.8pt" height="345.6pt" viewBox="0 0 460.8 345.6" xmlns="http://www.w3.org/2000/svg" version="1.1">
 <metadata>
  <rdf:RDF xmlns:dc="http://purl.org/dc/elements/1.1/" xmlns:cc="http://creativecommons.org/ns#" xmlns:rdf="http://www.w3.org/1999/02/22-rdf-syntax-ns#">
   <cc:Work>
    <dc:type rdf:resource="http://purl.org/dc/dcmitype/StillImage"/>
    <dc:date>2023-09-09T19:53:23.354382</dc:date>
    <dc:format>image/svg+xml</dc:format>
    <dc:creator>
     <cc:Agent>
      <dc:title>Matplotlib v3.7.1, https://matplotlib.org/</dc:title>
     </cc:Agent>
    </dc:creator>
   </cc:Work>
  </rdf:RDF>
 </metadata>
 <defs>
  <style type="text/css">*{stroke-linejoin: round; stroke-linecap: butt}</style>
 </defs>
 <g id="figure_1">
  <g id="patch_1">
   <path d="M 0 345.6 
L 460.8 345.6 
L 460.8 0 
L 0 0 
z
" style="fill: #ffffff"/>
  </g>
  <g id="axes_1">
   <g id="patch_2">
    <path d="M 57.6 271.924364 
L 414.72 271.924364 
L 414.72 77.131636 
L 57.6 77.131636 
z
" style="fill: #ffffff"/>
   </g>
   <g id="matplotlib.axis_1">
    <g id="xtick_1">
     <g id="line2d_1">
      <defs>
       <path id="m566dcfe1ee" d="M 0 0 
L 0 3.5 
" style="stroke: #000000; stroke-width: 0.8"/>
      </defs>
      <g>
       <use xlink:href="#m566dcfe1ee" x="90.065455" y="271.924364" style="stroke: #000000; stroke-width: 0.8"/>
      </g>
     </g>
     <g id="text_1">
      <!-- −200 -->
      <g transform="translate(76.331861 286.522801) scale(0.1 -0.1)">
       <defs>
        <path id="DejaVuSans-2212" d="M 678 2272 
L 4684 2272 
L 4684 1741 
L 678 1741 
L 678 2272 
z
" transform="scale(0.015625)"/>
        <path id="DejaVuSans-32" d="M 1228 531 
L 3431 531 
L 3431 0 
L 469 0 
L 469 531 
Q 828 903 1448 1529 
Q 2069 2156 2228 2338 
Q 2531 2678 2651 2914 
Q 2772 3150 2772 3378 
Q 2772 3750 2511 3984 
Q 2250 4219 1831 4219 
Q 1534 4219 1204 4116 
Q 875 4013 500 3803 
L 500 4441 
Q 881 4594 1212 4672 
Q 1544 4750 1819 4750 
Q 2544 4750 2975 4387 
Q 3406 4025 3406 3419 
Q 3406 3131 3298 2873 
Q 3191 2616 2906 2266 
Q 2828 2175 2409 1742 
Q 1991 1309 1228 531 
z
" transform="scale(0.015625)"/>
        <path id="DejaVuSans-30" d="M 2034 4250 
Q 1547 4250 1301 3770 
Q 1056 3291 1056 2328 
Q 1056 1369 1301 889 
Q 1547 409 2034 409 
Q 2525 409 2770 889 
Q 3016 1369 3016 2328 
Q 3016 3291 2770 3770 
Q 2525 4250 2034 4250 
z
M 2034 4750 
Q 2819 4750 3233 4129 
Q 3647 3509 3647 2328 
Q 3647 1150 3233 529 
Q 2819 -91 2034 -91 
Q 1250 -91 836 529 
Q 422 1150 422 2328 
Q 422 3509 836 4129 
Q 1250 4750 2034 4750 
z
" transform="scale(0.015625)"/>
       </defs>
       <use xlink:href="#DejaVuSans-2212"/>
       <use xlink:href="#DejaVuSans-32" x="83.789062"/>
       <use xlink:href="#DejaVuSans-30" x="147.412109"/>
       <use xlink:href="#DejaVuSans-30" x="211.035156"/>
      </g>
     </g>
    </g>
    <g id="xtick_2">
     <g id="line2d_2">
      <g>
       <use xlink:href="#m566dcfe1ee" x="154.996364" y="271.924364" style="stroke: #000000; stroke-width: 0.8"/>
      </g>
     </g>
     <g id="text_2">
      <!-- −100 -->
      <g transform="translate(141.26277 286.522801) scale(0.1 -0.1)">
       <defs>
        <path id="DejaVuSans-31" d="M 794 531 
L 1825 531 
L 1825 4091 
L 703 3866 
L 703 4441 
L 1819 4666 
L 2450 4666 
L 2450 531 
L 3481 531 
L 3481 0 
L 794 0 
L 794 531 
z
" transform="scale(0.015625)"/>
       </defs>
       <use xlink:href="#DejaVuSans-2212"/>
       <use xlink:href="#DejaVuSans-31" x="83.789062"/>
       <use xlink:href="#DejaVuSans-30" x="147.412109"/>
       <use xlink:href="#DejaVuSans-30" x="211.035156"/>
      </g>
     </g>
    </g>
    <g id="xtick_3">
     <g id="line2d_3">
      <g>
       <use xlink:href="#m566dcfe1ee" x="219.927273" y="271.924364" style="stroke: #000000; stroke-width: 0.8"/>
      </g>
     </g>
     <g id="text_3">
      <!-- 0 -->
      <g transform="translate(216.746023 286.522801) scale(0.1 -0.1)">
       <use xlink:href="#DejaVuSans-30"/>
      </g>
     </g>
    </g>
    <g id="xtick_4">
     <g id="line2d_4">
      <g>
       <use xlink:href="#m566dcfe1ee" x="284.858182" y="271.924364" style="stroke: #000000; stroke-width: 0.8"/>
      </g>
     </g>
     <g id="text_4">
      <!-- 100 -->
      <g transform="translate(275.314432 286.522801) scale(0.1 -0.1)">
       <use xlink:href="#DejaVuSans-31"/>
       <use xlink:href="#DejaVuSans-30" x="63.623047"/>
       <use xlink:href="#DejaVuSans-30" x="127.246094"/>
      </g>
     </g>
    </g>
    <g id="xtick_5">
     <g id="line2d_5">
      <g>
       <use xlink:href="#m566dcfe1ee" x="349.789091" y="271.924364" style="stroke: #000000; stroke-width: 0.8"/>
      </g>
     </g>
     <g id="text_5">
      <!-- 200 -->
      <g transform="translate(340.245341 286.522801) scale(0.1 -0.1)">
       <use xlink:href="#DejaVuSans-32"/>
       <use xlink:href="#DejaVuSans-30" x="63.623047"/>
       <use xlink:href="#DejaVuSans-30" x="127.246094"/>
      </g>
     </g>
    </g>
    <g id="xtick_6">
     <g id="line2d_6">
      <g>
       <use xlink:href="#m566dcfe1ee" x="414.72" y="271.924364" style="stroke: #000000; stroke-width: 0.8"/>
      </g>
     </g>
     <g id="text_6">
      <!-- 300 -->
      <g transform="translate(405.17625 286.522801) scale(0.1 -0.1)">
       <defs>
        <path id="DejaVuSans-33" d="M 2597 2516 
Q 3050 2419 3304 2112 
Q 3559 1806 3559 1356 
Q 3559 666 3084 287 
Q 2609 -91 1734 -91 
Q 1441 -91 1130 -33 
Q 819 25 488 141 
L 488 750 
Q 750 597 1062 519 
Q 1375 441 1716 441 
Q 2309 441 2620 675 
Q 2931 909 2931 1356 
Q 2931 1769 2642 2001 
Q 2353 2234 1838 2234 
L 1294 2234 
L 1294 2753 
L 1863 2753 
Q 2328 2753 2575 2939 
Q 2822 3125 2822 3475 
Q 2822 3834 2567 4026 
Q 2313 4219 1838 4219 
Q 1578 4219 1281 4162 
Q 984 4106 628 3988 
L 628 4550 
Q 988 4650 1302 4700 
Q 1616 4750 1894 4750 
Q 2613 4750 3031 4423 
Q 3450 4097 3450 3541 
Q 3450 3153 3228 2886 
Q 3006 2619 2597 2516 
z
" transform="scale(0.015625)"/>
       </defs>
       <use xlink:href="#DejaVuSans-33"/>
       <use xlink:href="#DejaVuSans-30" x="63.623047"/>
       <use xlink:href="#DejaVuSans-30" x="127.246094"/>
      </g>
     </g>
    </g>
    <g id="text_7">
     <!-- Re(Z) -->
     <g transform="translate(222.507656 300.200926) scale(0.1 -0.1)">
      <defs>
       <path id="DejaVuSans-52" d="M 2841 2188 
Q 3044 2119 3236 1894 
Q 3428 1669 3622 1275 
L 4263 0 
L 3584 0 
L 2988 1197 
Q 2756 1666 2539 1819 
Q 2322 1972 1947 1972 
L 1259 1972 
L 1259 0 
L 628 0 
L 628 4666 
L 2053 4666 
Q 2853 4666 3247 4331 
Q 3641 3997 3641 3322 
Q 3641 2881 3436 2590 
Q 3231 2300 2841 2188 
z
M 1259 4147 
L 1259 2491 
L 2053 2491 
Q 2509 2491 2742 2702 
Q 2975 2913 2975 3322 
Q 2975 3731 2742 3939 
Q 2509 4147 2053 4147 
L 1259 4147 
z
" transform="scale(0.015625)"/>
       <path id="DejaVuSans-65" d="M 3597 1894 
L 3597 1613 
L 953 1613 
Q 991 1019 1311 708 
Q 1631 397 2203 397 
Q 2534 397 2845 478 
Q 3156 559 3463 722 
L 3463 178 
Q 3153 47 2828 -22 
Q 2503 -91 2169 -91 
Q 1331 -91 842 396 
Q 353 884 353 1716 
Q 353 2575 817 3079 
Q 1281 3584 2069 3584 
Q 2775 3584 3186 3129 
Q 3597 2675 3597 1894 
z
M 3022 2063 
Q 3016 2534 2758 2815 
Q 2500 3097 2075 3097 
Q 1594 3097 1305 2825 
Q 1016 2553 972 2059 
L 3022 2063 
z
" transform="scale(0.015625)"/>
       <path id="DejaVuSans-28" d="M 1984 4856 
Q 1566 4138 1362 3434 
Q 1159 2731 1159 2009 
Q 1159 1288 1364 580 
Q 1569 -128 1984 -844 
L 1484 -844 
Q 1016 -109 783 600 
Q 550 1309 550 2009 
Q 550 2706 781 3412 
Q 1013 4119 1484 4856 
L 1984 4856 
z
" transform="scale(0.015625)"/>
       <path id="DejaVuSans-5a" d="M 359 4666 
L 4025 4666 
L 4025 4184 
L 1075 531 
L 4097 531 
L 4097 0 
L 288 0 
L 288 481 
L 3238 4134 
L 359 4134 
L 359 4666 
z
" transform="scale(0.015625)"/>
       <path id="DejaVuSans-29" d="M 513 4856 
L 1013 4856 
Q 1481 4119 1714 3412 
Q 1947 2706 1947 2009 
Q 1947 1309 1714 600 
Q 1481 -109 1013 -844 
L 513 -844 
Q 928 -128 1133 580 
Q 1338 1288 1338 2009 
Q 1338 2731 1133 3434 
Q 928 4138 513 4856 
z
" transform="scale(0.015625)"/>
      </defs>
      <use xlink:href="#DejaVuSans-52"/>
      <use xlink:href="#DejaVuSans-65" x="64.982422"/>
      <use xlink:href="#DejaVuSans-28" x="126.505859"/>
      <use xlink:href="#DejaVuSans-5a" x="165.519531"/>
      <use xlink:href="#DejaVuSans-29" x="234.025391"/>
     </g>
    </g>
   </g>
   <g id="matplotlib.axis_2">
    <g id="ytick_1">
     <g id="line2d_7">
      <defs>
       <path id="me0f1ea6153" d="M 0 0 
L -3.5 0 
" style="stroke: #000000; stroke-width: 0.8"/>
      </defs>
      <g>
       <use xlink:href="#me0f1ea6153" x="57.6" y="271.924364" style="stroke: #000000; stroke-width: 0.8"/>
      </g>
     </g>
     <g id="text_8">
      <!-- 0 -->
      <g transform="translate(44.2375 275.723582) scale(0.1 -0.1)">
       <use xlink:href="#DejaVuSans-30"/>
      </g>
     </g>
    </g>
    <g id="ytick_2">
     <g id="line2d_8">
      <g>
       <use xlink:href="#me0f1ea6153" x="57.6" y="239.458909" style="stroke: #000000; stroke-width: 0.8"/>
      </g>
     </g>
     <g id="text_9">
      <!-- 50 -->
      <g transform="translate(37.875 243.258128) scale(0.1 -0.1)">
       <defs>
        <path id="DejaVuSans-35" d="M 691 4666 
L 3169 4666 
L 3169 4134 
L 1269 4134 
L 1269 2991 
Q 1406 3038 1543 3061 
Q 1681 3084 1819 3084 
Q 2600 3084 3056 2656 
Q 3513 2228 3513 1497 
Q 3513 744 3044 326 
Q 2575 -91 1722 -91 
Q 1428 -91 1123 -41 
Q 819 9 494 109 
L 494 744 
Q 775 591 1075 516 
Q 1375 441 1709 441 
Q 2250 441 2565 725 
Q 2881 1009 2881 1497 
Q 2881 1984 2565 2268 
Q 2250 2553 1709 2553 
Q 1456 2553 1204 2497 
Q 953 2441 691 2322 
L 691 4666 
z
" transform="scale(0.015625)"/>
       </defs>
       <use xlink:href="#DejaVuSans-35"/>
       <use xlink:href="#DejaVuSans-30" x="63.623047"/>
      </g>
     </g>
    </g>
    <g id="ytick_3">
     <g id="line2d_9">
      <g>
       <use xlink:href="#me0f1ea6153" x="57.6" y="206.993455" style="stroke: #000000; stroke-width: 0.8"/>
      </g>
     </g>
     <g id="text_10">
      <!-- 100 -->
      <g transform="translate(31.5125 210.792673) scale(0.1 -0.1)">
       <use xlink:href="#DejaVuSans-31"/>
       <use xlink:href="#DejaVuSans-30" x="63.623047"/>
       <use xlink:href="#DejaVuSans-30" x="127.246094"/>
      </g>
     </g>
    </g>
    <g id="ytick_4">
     <g id="line2d_10">
      <g>
       <use xlink:href="#me0f1ea6153" x="57.6" y="174.528" style="stroke: #000000; stroke-width: 0.8"/>
      </g>
     </g>
     <g id="text_11">
      <!-- 150 -->
      <g transform="translate(31.5125 178.327219) scale(0.1 -0.1)">
       <use xlink:href="#DejaVuSans-31"/>
       <use xlink:href="#DejaVuSans-35" x="63.623047"/>
       <use xlink:href="#DejaVuSans-30" x="127.246094"/>
      </g>
     </g>
    </g>
    <g id="ytick_5">
     <g id="line2d_11">
      <g>
       <use xlink:href="#me0f1ea6153" x="57.6" y="142.062545" style="stroke: #000000; stroke-width: 0.8"/>
      </g>
     </g>
     <g id="text_12">
      <!-- 200 -->
      <g transform="translate(31.5125 145.861764) scale(0.1 -0.1)">
       <use xlink:href="#DejaVuSans-32"/>
       <use xlink:href="#DejaVuSans-30" x="63.623047"/>
       <use xlink:href="#DejaVuSans-30" x="127.246094"/>
      </g>
     </g>
    </g>
    <g id="ytick_6">
     <g id="line2d_12">
      <g>
       <use xlink:href="#me0f1ea6153" x="57.6" y="109.597091" style="stroke: #000000; stroke-width: 0.8"/>
      </g>
     </g>
     <g id="text_13">
      <!-- 250 -->
      <g transform="translate(31.5125 113.39631) scale(0.1 -0.1)">
       <use xlink:href="#DejaVuSans-32"/>
       <use xlink:href="#DejaVuSans-35" x="63.623047"/>
       <use xlink:href="#DejaVuSans-30" x="127.246094"/>
      </g>
     </g>
    </g>
    <g id="ytick_7">
     <g id="line2d_13">
      <g>
       <use xlink:href="#me0f1ea6153" x="57.6" y="77.131636" style="stroke: #000000; stroke-width: 0.8"/>
      </g>
     </g>
     <g id="text_14">
      <!-- 300 -->
      <g transform="translate(31.5125 80.930855) scale(0.1 -0.1)">
       <use xlink:href="#DejaVuSans-33"/>
       <use xlink:href="#DejaVuSans-30" x="63.623047"/>
       <use xlink:href="#DejaVuSans-30" x="127.246094"/>
      </g>
     </g>
    </g>
    <g id="text_15">
     <!-- -Im(Z) -->
     <g transform="translate(25.432812 190.003781) rotate(-90) scale(0.1 -0.1)">
      <defs>
       <path id="DejaVuSans-2d" d="M 313 2009 
L 1997 2009 
L 1997 1497 
L 313 1497 
L 313 2009 
z
" transform="scale(0.015625)"/>
       <path id="DejaVuSans-49" d="M 628 4666 
L 1259 4666 
L 1259 0 
L 628 0 
L 628 4666 
z
" transform="scale(0.015625)"/>
       <path id="DejaVuSans-6d" d="M 3328 2828 
Q 3544 3216 3844 3400 
Q 4144 3584 4550 3584 
Q 5097 3584 5394 3201 
Q 5691 2819 5691 2113 
L 5691 0 
L 5113 0 
L 5113 2094 
Q 5113 2597 4934 2840 
Q 4756 3084 4391 3084 
Q 3944 3084 3684 2787 
Q 3425 2491 3425 1978 
L 3425 0 
L 2847 0 
L 2847 2094 
Q 2847 2600 2669 2842 
Q 2491 3084 2119 3084 
Q 1678 3084 1418 2786 
Q 1159 2488 1159 1978 
L 1159 0 
L 581 0 
L 581 3500 
L 1159 3500 
L 1159 2956 
Q 1356 3278 1631 3431 
Q 1906 3584 2284 3584 
Q 2666 3584 2933 3390 
Q 3200 3197 3328 2828 
z
" transform="scale(0.015625)"/>
      </defs>
      <use xlink:href="#DejaVuSans-2d"/>
      <use xlink:href="#DejaVuSans-49" x="36.083984"/>
      <use xlink:href="#DejaVuSans-6d" x="65.576172"/>
      <use xlink:href="#DejaVuSans-28" x="162.988281"/>
      <use xlink:href="#DejaVuSans-5a" x="202.001953"/>
      <use xlink:href="#DejaVuSans-29" x="270.507812"/>
     </g>
    </g>
   </g>
   <g id="line2d_14">
    <path d="M 252.487491 -1 
L 252.487438 -0.202103 
L 252.477218 66.336288 
L 252.459279 116.423365 
L 252.427826 154.067973 
L 252.372773 182.284205 
L 252.276709 203.3338 
L 252.109986 218.909854 
L 251.82331 230.278233 
L 251.338176 238.391196 
L 250.538896 243.986967 
L 249.278253 247.685952 
L 247.419846 250.07933 
L 244.933427 251.770192 
L 241.996963 253.3029 
L 238.976796 254.997176 
L 236.234415 256.861794 
L 233.935294 258.717611 
L 232.042703 260.40242 
L 230.445245 261.866725 
L 229.061962 263.13814 
L 227.857535 264.253139 
L 226.812019 265.232575 
L 225.905161 266.09073 
L 225.11814 266.841456 
L 224.434959 267.497556 
" clip-path="url(#peb4977ed10)" style="fill: none; stroke: #ff0000; stroke-width: 1.5; stroke-linecap: square"/>
   </g>
   <g id="line2d_15">
    <path d="M 252.668259 -1 
L 252.669349 0.379591 
L 252.78318 67.065471 
L 252.959071 117.302716 
L 253.208634 155.064457 
L 253.518293 183.30907 
L 253.828279 204.239338 
L 254.029309 219.517649 
L 253.983117 230.426512 
L 253.539065 237.972559 
L 252.527884 242.97367 
L 250.769262 246.169782 
L 248.166472 248.330231 
L 244.896953 250.220215 
L 241.473097 252.321509 
L 238.418931 254.612497 
L 235.905303 256.8055 
L 233.813153 258.725982 
L 232.002416 260.383869 
L 230.418203 261.837742 
L 229.039907 263.117695 
L 227.842827 264.240743 
L 226.802767 265.224516 
L 225.899203 266.085382 
L 225.114282 266.83794 
L 224.43246 267.495247 
" clip-path="url(#peb4977ed10)" style="fill: none; stroke: #0000ff; stroke-width: 1.5; stroke-linecap: square"/>
   </g>
   <g id="line2d_16">
    <path d="M 256.571348 -1 
L 256.571279 -0.914686 
L 256.452174 65.427276 
L 256.263421 115.293039 
L 255.983692 152.71518 
L 255.606831 180.74429 
L 255.150892 201.668485 
L 254.631591 217.164613 
L 254.002909 228.44861 
L 253.133049 236.450251 
L 251.847509 241.95614 
L 250.001722 245.688095 
L 247.555859 248.321138 
L 244.625161 250.44392 
L 241.48169 252.486285 
L 238.490267 254.626783 
L 235.922269 256.763427 
L 233.79844 258.703286 
L 231.992622 260.378709 
L 230.41469 261.834443 
L 229.037472 263.114832 
L 227.841106 264.238936 
L 226.801647 265.223337 
L 225.898463 266.084609 
L 225.113795 266.837433 
L 224.432139 267.494915 
" clip-path="url(#peb4977ed10)" style="fill: none; stroke: #ffc0cb; stroke-width: 1.5; stroke-linecap: square"/>
   </g>
   <g id="line2d_17">
    <path d="M 252.455699 -1 
L 252.455531 -0.185231 
L 252.427987 66.372856 
L 252.390853 116.498728 
L 252.350528 154.21128 
L 252.322791 182.525733 
L 252.320461 203.678734 
L 252.318209 219.310497 
L 252.225614 230.640695 
L 251.902632 238.616447 
L 251.187331 244.004312 
L 249.905367 247.46253 
L 247.897984 249.630309 
L 245.132291 251.196908 
L 241.880204 252.811763 
L 238.700862 254.765724 
L 236.022712 256.859556 
L 233.861539 258.780565 
L 232.038703 260.431663 
L 230.445954 261.868143 
L 229.057965 263.136804 
L 227.854661 264.25337 
L 226.810606 265.232791 
L 225.904375 266.090802 
L 225.117692 266.841491 
L 224.434706 267.497573 
" clip-path="url(#peb4977ed10)" style="fill: none; stroke: #008000; stroke-width: 1.5; stroke-linecap: square"/>
   </g>
   <g id="patch_3">
    <path d="M 57.6 271.924364 
L 57.6 77.131636 
" style="fill: none; stroke: #000000; stroke-width: 1.5; stroke-linejoin: miter; stroke-linecap: square"/>
   </g>
   <g id="patch_4">
    <path d="M 414.72 271.924364 
L 414.72 77.131636 
" style="fill: none; stroke: #000000; stroke-width: 1.5; stroke-linejoin: miter; stroke-linecap: square"/>
   </g>
   <g id="patch_5">
    <path d="M 57.6 271.924364 
L 414.72 271.924364 
" style="fill: none; stroke: #000000; stroke-width: 1.5; stroke-linejoin: miter; stroke-linecap: square"/>
   </g>
   <g id="patch_6">
    <path d="M 57.6 77.131636 
L 414.72 77.131636 
" style="fill: none; stroke: #000000; stroke-width: 1.5; stroke-linejoin: miter; stroke-linecap: square"/>
   </g>
   <g id="text_16">
    <!-- R1/R2 = 100, (R1=100, R2=1, Q=6.61e-4) -->
    <g transform="translate(107.665312 71.131636) scale(0.12 -0.12)">
     <defs>
      <path id="DejaVuSans-2f" d="M 1625 4666 
L 2156 4666 
L 531 -594 
L 0 -594 
L 1625 4666 
z
" transform="scale(0.015625)"/>
      <path id="DejaVuSans-20" transform="scale(0.015625)"/>
      <path id="DejaVuSans-3d" d="M 678 2906 
L 4684 2906 
L 4684 2381 
L 678 2381 
L 678 2906 
z
M 678 1631 
L 4684 1631 
L 4684 1100 
L 678 1100 
L 678 1631 
z
" transform="scale(0.015625)"/>
      <path id="DejaVuSans-2c" d="M 750 794 
L 1409 794 
L 1409 256 
L 897 -744 
L 494 -744 
L 750 256 
L 750 794 
z
" transform="scale(0.015625)"/>
      <path id="DejaVuSans-51" d="M 2522 4238 
Q 1834 4238 1429 3725 
Q 1025 3213 1025 2328 
Q 1025 1447 1429 934 
Q 1834 422 2522 422 
Q 3209 422 3611 934 
Q 4013 1447 4013 2328 
Q 4013 3213 3611 3725 
Q 3209 4238 2522 4238 
z
M 3406 84 
L 4238 -825 
L 3475 -825 
L 2784 -78 
Q 2681 -84 2626 -87 
Q 2572 -91 2522 -91 
Q 1538 -91 948 567 
Q 359 1225 359 2328 
Q 359 3434 948 4092 
Q 1538 4750 2522 4750 
Q 3503 4750 4090 4092 
Q 4678 3434 4678 2328 
Q 4678 1516 4351 937 
Q 4025 359 3406 84 
z
" transform="scale(0.015625)"/>
      <path id="DejaVuSans-36" d="M 2113 2584 
Q 1688 2584 1439 2293 
Q 1191 2003 1191 1497 
Q 1191 994 1439 701 
Q 1688 409 2113 409 
Q 2538 409 2786 701 
Q 3034 994 3034 1497 
Q 3034 2003 2786 2293 
Q 2538 2584 2113 2584 
z
M 3366 4563 
L 3366 3988 
Q 3128 4100 2886 4159 
Q 2644 4219 2406 4219 
Q 1781 4219 1451 3797 
Q 1122 3375 1075 2522 
Q 1259 2794 1537 2939 
Q 1816 3084 2150 3084 
Q 2853 3084 3261 2657 
Q 3669 2231 3669 1497 
Q 3669 778 3244 343 
Q 2819 -91 2113 -91 
Q 1303 -91 875 529 
Q 447 1150 447 2328 
Q 447 3434 972 4092 
Q 1497 4750 2381 4750 
Q 2619 4750 2861 4703 
Q 3103 4656 3366 4563 
z
" transform="scale(0.015625)"/>
      <path id="DejaVuSans-2e" d="M 684 794 
L 1344 794 
L 1344 0 
L 684 0 
L 684 794 
z
" transform="scale(0.015625)"/>
      <path id="DejaVuSans-34" d="M 2419 4116 
L 825 1625 
L 2419 1625 
L 2419 4116 
z
M 2253 4666 
L 3047 4666 
L 3047 1625 
L 3713 1625 
L 3713 1100 
L 3047 1100 
L 3047 0 
L 2419 0 
L 2419 1100 
L 313 1100 
L 313 1709 
L 2253 4666 
z
" transform="scale(0.015625)"/>
     </defs>
     <use xlink:href="#DejaVuSans-52"/>
     <use xlink:href="#DejaVuSans-31" x="69.482422"/>
     <use xlink:href="#DejaVuSans-2f" x="133.105469"/>
     <use xlink:href="#DejaVuSans-52" x="166.796875"/>
     <use xlink:href="#DejaVuSans-32" x="236.279297"/>
     <use xlink:href="#DejaVuSans-20" x="299.902344"/>
     <use xlink:href="#DejaVuSans-3d" x="331.689453"/>
     <use xlink:href="#DejaVuSans-20" x="415.478516"/>
     <use xlink:href="#DejaVuSans-31" x="447.265625"/>
     <use xlink:href="#DejaVuSans-30" x="510.888672"/>
     <use xlink:href="#DejaVuSans-30" x="574.511719"/>
     <use xlink:href="#DejaVuSans-2c" x="638.134766"/>
     <use xlink:href="#DejaVuSans-20" x="669.921875"/>
     <use xlink:href="#DejaVuSans-28" x="701.708984"/>
     <use xlink:href="#DejaVuSans-52" x="740.722656"/>
     <use xlink:href="#DejaVuSans-31" x="810.205078"/>
     <use xlink:href="#DejaVuSans-3d" x="873.828125"/>
     <use xlink:href="#DejaVuSans-31" x="957.617188"/>
     <use xlink:href="#DejaVuSans-30" x="1021.240234"/>
     <use xlink:href="#DejaVuSans-30" x="1084.863281"/>
     <use xlink:href="#DejaVuSans-2c" x="1148.486328"/>
     <use xlink:href="#DejaVuSans-20" x="1180.273438"/>
     <use xlink:href="#DejaVuSans-52" x="1212.060547"/>
     <use xlink:href="#DejaVuSans-32" x="1281.542969"/>
     <use xlink:href="#DejaVuSans-3d" x="1345.166016"/>
     <use xlink:href="#DejaVuSans-31" x="1428.955078"/>
     <use xlink:href="#DejaVuSans-2c" x="1492.578125"/>
     <use xlink:href="#DejaVuSans-20" x="1524.365234"/>
     <use xlink:href="#DejaVuSans-51" x="1556.152344"/>
     <use xlink:href="#DejaVuSans-3d" x="1634.863281"/>
     <use xlink:href="#DejaVuSans-36" x="1718.652344"/>
     <use xlink:href="#DejaVuSans-2e" x="1782.275391"/>
     <use xlink:href="#DejaVuSans-36" x="1814.0625"/>
     <use xlink:href="#DejaVuSans-31" x="1877.685547"/>
     <use xlink:href="#DejaVuSans-65" x="1941.308594"/>
     <use xlink:href="#DejaVuSans-2d" x="2002.832031"/>
     <use xlink:href="#DejaVuSans-34" x="2038.916016"/>
     <use xlink:href="#DejaVuSans-29" x="2102.539062"/>
    </g>
   </g>
   <g id="axes_2">
    <g id="patch_7">
     <path d="M 93.312 230.855564 
L 225.4464 230.855564 
L 225.4464 98.721164 
L 93.312 98.721164 
z
" style="fill: #ffffff"/>
    </g>
    <g id="matplotlib.axis_3">
     <g id="xtick_7">
      <g id="line2d_18">
       <g>
        <use xlink:href="#m566dcfe1ee" x="93.312" y="230.855564" style="stroke: #000000; stroke-width: 0.8"/>
       </g>
      </g>
      <g id="text_17">
       <!-- 20 -->
       <g transform="translate(86.9495 245.454001) scale(0.1 -0.1)">
        <use xlink:href="#DejaVuSans-32"/>
        <use xlink:href="#DejaVuSans-30" x="63.623047"/>
       </g>
      </g>
     </g>
     <g id="xtick_8">
      <g id="line2d_19">
       <g>
        <use xlink:href="#m566dcfe1ee" x="126.3456" y="230.855564" style="stroke: #000000; stroke-width: 0.8"/>
       </g>
      </g>
      <g id="text_18">
       <!-- 30 -->
       <g transform="translate(119.9831 245.454001) scale(0.1 -0.1)">
        <use xlink:href="#DejaVuSans-33"/>
        <use xlink:href="#DejaVuSans-30" x="63.623047"/>
       </g>
      </g>
     </g>
     <g id="xtick_9">
      <g id="line2d_20">
       <g>
        <use xlink:href="#m566dcfe1ee" x="159.3792" y="230.855564" style="stroke: #000000; stroke-width: 0.8"/>
       </g>
      </g>
      <g id="text_19">
       <!-- 40 -->
       <g transform="translate(153.0167 245.454001) scale(0.1 -0.1)">
        <use xlink:href="#DejaVuSans-34"/>
        <use xlink:href="#DejaVuSans-30" x="63.623047"/>
       </g>
      </g>
     </g>
     <g id="xtick_10">
      <g id="line2d_21">
       <g>
        <use xlink:href="#m566dcfe1ee" x="192.4128" y="230.855564" style="stroke: #000000; stroke-width: 0.8"/>
       </g>
      </g>
      <g id="text_20">
       <!-- 50 -->
       <g transform="translate(186.0503 245.454001) scale(0.1 -0.1)">
        <use xlink:href="#DejaVuSans-35"/>
        <use xlink:href="#DejaVuSans-30" x="63.623047"/>
       </g>
      </g>
     </g>
     <g id="xtick_11">
      <g id="line2d_22">
       <g>
        <use xlink:href="#m566dcfe1ee" x="225.4464" y="230.855564" style="stroke: #000000; stroke-width: 0.8"/>
       </g>
      </g>
      <g id="text_21">
       <!-- 60 -->
       <g transform="translate(219.0839 245.454001) scale(0.1 -0.1)">
        <use xlink:href="#DejaVuSans-36"/>
        <use xlink:href="#DejaVuSans-30" x="63.623047"/>
       </g>
      </g>
     </g>
    </g>
    <g id="matplotlib.axis_4">
     <g id="ytick_8">
      <g id="line2d_23">
       <g>
        <use xlink:href="#me0f1ea6153" x="93.312" y="230.855564" style="stroke: #000000; stroke-width: 0.8"/>
       </g>
      </g>
      <g id="text_22">
       <!-- 20 -->
       <g transform="translate(73.587 234.654782) scale(0.1 -0.1)">
        <use xlink:href="#DejaVuSans-32"/>
        <use xlink:href="#DejaVuSans-30" x="63.623047"/>
       </g>
      </g>
     </g>
     <g id="ytick_9">
      <g id="line2d_24">
       <g>
        <use xlink:href="#me0f1ea6153" x="93.312" y="197.821964" style="stroke: #000000; stroke-width: 0.8"/>
       </g>
      </g>
      <g id="text_23">
       <!-- 30 -->
       <g transform="translate(73.587 201.621182) scale(0.1 -0.1)">
        <use xlink:href="#DejaVuSans-33"/>
        <use xlink:href="#DejaVuSans-30" x="63.623047"/>
       </g>
      </g>
     </g>
     <g id="ytick_10">
      <g id="line2d_25">
       <g>
        <use xlink:href="#me0f1ea6153" x="93.312" y="164.788364" style="stroke: #000000; stroke-width: 0.8"/>
       </g>
      </g>
      <g id="text_24">
       <!-- 40 -->
       <g transform="translate(73.587 168.587582) scale(0.1 -0.1)">
        <use xlink:href="#DejaVuSans-34"/>
        <use xlink:href="#DejaVuSans-30" x="63.623047"/>
       </g>
      </g>
     </g>
     <g id="ytick_11">
      <g id="line2d_26">
       <g>
        <use xlink:href="#me0f1ea6153" x="93.312" y="131.754764" style="stroke: #000000; stroke-width: 0.8"/>
       </g>
      </g>
      <g id="text_25">
       <!-- 50 -->
       <g transform="translate(73.587 135.553982) scale(0.1 -0.1)">
        <use xlink:href="#DejaVuSans-35"/>
        <use xlink:href="#DejaVuSans-30" x="63.623047"/>
       </g>
      </g>
     </g>
     <g id="ytick_12">
      <g id="line2d_27">
       <g>
        <use xlink:href="#me0f1ea6153" x="93.312" y="98.721164" style="stroke: #000000; stroke-width: 0.8"/>
       </g>
      </g>
      <g id="text_26">
       <!-- 60 -->
       <g transform="translate(73.587 102.520382) scale(0.1 -0.1)">
        <use xlink:href="#DejaVuSans-36"/>
        <use xlink:href="#DejaVuSans-30" x="63.623047"/>
       </g>
      </g>
     </g>
    </g>
    <g id="line2d_28">
     <path d="M 191.276324 -1 
L 190.974354 27.211445 
L 189.515891 85.048076 
L 187.047772 126.322771 
L 182.981432 154.791259 
L 176.56791 173.609846 
L 167.113265 185.786157 
L 154.463611 194.388415 
L 139.52435 202.18607 
L 124.159251 210.805696 
L 110.207387 220.29194 
L 98.510606 229.733411 
L 88.882049 238.304874 
L 80.754985 245.754527 
L 73.717534 252.222849 
L 67.590009 257.895411 
L 62.270948 262.878288 
L 57.657304 267.24415 
L 53.653338 271.06347 
L 50.177654 274.40138 
" clip-path="url(#pd24b8be3f7)" style="fill: none; stroke: #ff0000; stroke-width: 1.5; stroke-linecap: square"/>
    </g>
    <g id="line2d_29">
     <path d="M 200.327019 -1 
L 200.738908 30.303604 
L 200.503906 85.802443 
L 198.244792 124.19296 
L 193.100411 149.636112 
L 184.153422 165.896331 
L 170.911727 176.887615 
L 154.278049 186.502907 
L 136.859182 197.19324 
L 121.321109 208.848643 
L 108.533029 220.005547 
L 97.889214 229.775996 
L 88.677093 238.210497 
L 80.617405 245.607074 
L 73.605328 252.118836 
L 67.515184 257.832342 
L 62.223878 262.837288 
L 57.626996 267.216946 
L 53.633711 271.045583 
L 50.16494 274.389632 
" clip-path="url(#pd24b8be3f7)" style="fill: none; stroke: #0000ff; stroke-width: 1.5; stroke-linecap: square"/>
    </g>
    <g id="line2d_30">
     <path d="M 204.450882 -1 
L 203.803017 18.332534 
L 200.604598 75.739868 
L 196.179188 116.448217 
L 189.639004 144.459428 
L 180.248559 163.445748 
L 167.805234 176.841353 
L 152.895307 187.641006 
L 136.902897 198.031537 
L 121.684031 208.921321 
L 108.619343 219.791499 
L 97.814362 229.660533 
L 88.627267 238.184245 
L 80.599535 245.590294 
L 73.592937 252.104269 
L 67.506428 257.823149 
L 62.218181 262.831292 
L 57.623232 267.21301 
L 53.631231 271.043004 
L 50.163307 274.387943 
" clip-path="url(#pd24b8be3f7)" style="fill: none; stroke: #ffc0cb; stroke-width: 1.5; stroke-linecap: square"/>
    </g>
    <g id="line2d_31">
     <path d="M 192.038047 -1 
L 192.033689 29.249716 
L 191.56261 86.892099 
L 189.919441 127.468736 
L 186.280348 154.8795 
L 179.758356 172.473183 
L 169.545791 183.501761 
L 155.47533 191.471835 
L 138.930336 199.687408 
L 122.755437 209.628183 
L 109.130349 220.280556 
L 98.135381 230.053686 
L 88.861702 238.453648 
L 80.758591 245.761744 
L 73.697197 252.216056 
L 67.575389 257.896581 
L 62.26376 262.879388 
L 57.653308 267.24452 
L 53.651058 271.063647 
L 50.176366 274.401467 
" clip-path="url(#pd24b8be3f7)" style="fill: none; stroke: #008000; stroke-width: 1.5; stroke-linecap: square"/>
    </g>
    <g id="patch_8">
     <path d="M 93.312 230.855564 
L 93.312 98.721164 
" style="fill: none; stroke: #000000; stroke-linejoin: miter; stroke-linecap: square"/>
    </g>
    <g id="patch_9">
     <path d="M 225.4464 230.855564 
L 225.4464 98.721164 
" style="fill: none; stroke: #000000; stroke-linejoin: miter; stroke-linecap: square"/>
    </g>
    <g id="patch_10">
     <path d="M 93.312 230.855564 
L 225.4464 230.855564 
" style="fill: none; stroke: #000000; stroke-linejoin: miter; stroke-linecap: square"/>
    </g>
    <g id="patch_11">
     <path d="M 93.312 98.721164 
L 225.4464 98.721164 
" style="fill: none; stroke: #000000; stroke-linejoin: miter; stroke-linecap: square"/>
    </g>
    <g id="text_27">
     <!-- High ω -->
     <g transform="translate(138.657637 92.721164) scale(0.12 -0.12)">
      <defs>
       <path id="DejaVuSans-48" d="M 628 4666 
L 1259 4666 
L 1259 2753 
L 3553 2753 
L 3553 4666 
L 4184 4666 
L 4184 0 
L 3553 0 
L 3553 2222 
L 1259 2222 
L 1259 0 
L 628 0 
L 628 4666 
z
" transform="scale(0.015625)"/>
       <path id="DejaVuSans-69" d="M 603 3500 
L 1178 3500 
L 1178 0 
L 603 0 
L 603 3500 
z
M 603 4863 
L 1178 4863 
L 1178 4134 
L 603 4134 
L 603 4863 
z
" transform="scale(0.015625)"/>
       <path id="DejaVuSans-67" d="M 2906 1791 
Q 2906 2416 2648 2759 
Q 2391 3103 1925 3103 
Q 1463 3103 1205 2759 
Q 947 2416 947 1791 
Q 947 1169 1205 825 
Q 1463 481 1925 481 
Q 2391 481 2648 825 
Q 2906 1169 2906 1791 
z
M 3481 434 
Q 3481 -459 3084 -895 
Q 2688 -1331 1869 -1331 
Q 1566 -1331 1297 -1286 
Q 1028 -1241 775 -1147 
L 775 -588 
Q 1028 -725 1275 -790 
Q 1522 -856 1778 -856 
Q 2344 -856 2625 -561 
Q 2906 -266 2906 331 
L 2906 616 
Q 2728 306 2450 153 
Q 2172 0 1784 0 
Q 1141 0 747 490 
Q 353 981 353 1791 
Q 353 2603 747 3093 
Q 1141 3584 1784 3584 
Q 2172 3584 2450 3431 
Q 2728 3278 2906 2969 
L 2906 3500 
L 3481 3500 
L 3481 434 
z
" transform="scale(0.015625)"/>
       <path id="DejaVuSans-68" d="M 3513 2113 
L 3513 0 
L 2938 0 
L 2938 2094 
Q 2938 2591 2744 2837 
Q 2550 3084 2163 3084 
Q 1697 3084 1428 2787 
Q 1159 2491 1159 1978 
L 1159 0 
L 581 0 
L 581 4863 
L 1159 4863 
L 1159 2956 
Q 1366 3272 1645 3428 
Q 1925 3584 2291 3584 
Q 2894 3584 3203 3211 
Q 3513 2838 3513 2113 
z
" transform="scale(0.015625)"/>
       <path id="DejaVuSans-3c9" d="M 1719 -91 
Q 422 -91 422 1766 
Q 422 2500 906 3500 
L 1525 3500 
Q 1078 2500 1078 1750 
Q 1078 397 1772 397 
Q 2406 397 2406 2078 
L 2938 2078 
Q 2938 397 3572 397 
Q 4266 397 4266 1750 
Q 4266 2500 3819 3500 
L 4438 3500 
Q 4922 2500 4922 1766 
Q 4922 -91 3625 -91 
Q 2775 -91 2672 844 
Q 2544 -91 1719 -91 
z
" transform="scale(0.015625)"/>
      </defs>
      <use xlink:href="#DejaVuSans-48"/>
      <use xlink:href="#DejaVuSans-69" x="75.195312"/>
      <use xlink:href="#DejaVuSans-67" x="102.978516"/>
      <use xlink:href="#DejaVuSans-68" x="166.455078"/>
      <use xlink:href="#DejaVuSans-20" x="229.833984"/>
      <use xlink:href="#DejaVuSans-3c9" x="261.621094"/>
     </g>
    </g>
   </g>
   <g id="axes_3">
    <g id="patch_12">
     <path d="M 326.15424 252.445091 
L 360.43776 252.445091 
L 360.43776 96.610909 
L 326.15424 96.610909 
z
" style="fill: #ffffff"/>
    </g>
    <g id="matplotlib.axis_5">
     <g id="xtick_12">
      <g id="line2d_32">
       <g>
        <use xlink:href="#m566dcfe1ee" x="335.504291" y="252.445091" style="stroke: #000000; stroke-width: 0.8"/>
       </g>
      </g>
      <g id="text_28">
       <!-- 50 -->
       <g transform="translate(329.141791 267.043528) scale(0.1 -0.1)">
        <use xlink:href="#DejaVuSans-35"/>
        <use xlink:href="#DejaVuSans-30" x="63.623047"/>
       </g>
      </g>
     </g>
     <g id="xtick_13">
      <g id="line2d_33">
       <g>
        <use xlink:href="#m566dcfe1ee" x="351.087709" y="252.445091" style="stroke: #000000; stroke-width: 0.8"/>
       </g>
      </g>
      <g id="text_29">
       <!-- 55 -->
       <g transform="translate(344.725209 267.043528) scale(0.1 -0.1)">
        <use xlink:href="#DejaVuSans-35"/>
        <use xlink:href="#DejaVuSans-35" x="63.623047"/>
       </g>
      </g>
     </g>
    </g>
    <g id="matplotlib.axis_6">
     <g id="ytick_13">
      <g id="line2d_34">
       <g>
        <use xlink:href="#me0f1ea6153" x="326.15424" y="252.445091" style="stroke: #000000; stroke-width: 0.8"/>
       </g>
      </g>
      <g id="text_30">
       <!-- 200 -->
       <g transform="translate(300.06674 256.24431) scale(0.1 -0.1)">
        <use xlink:href="#DejaVuSans-32"/>
        <use xlink:href="#DejaVuSans-30" x="63.623047"/>
        <use xlink:href="#DejaVuSans-30" x="127.246094"/>
       </g>
      </g>
     </g>
     <g id="ytick_14">
      <g id="line2d_35">
       <g>
        <use xlink:href="#me0f1ea6153" x="326.15424" y="221.278255" style="stroke: #000000; stroke-width: 0.8"/>
       </g>
      </g>
      <g id="text_31">
       <!-- 210 -->
       <g transform="translate(300.06674 225.077473) scale(0.1 -0.1)">
        <use xlink:href="#DejaVuSans-32"/>
        <use xlink:href="#DejaVuSans-31" x="63.623047"/>
        <use xlink:href="#DejaVuSans-30" x="127.246094"/>
       </g>
      </g>
     </g>
     <g id="ytick_15">
      <g id="line2d_36">
       <g>
        <use xlink:href="#me0f1ea6153" x="326.15424" y="190.111418" style="stroke: #000000; stroke-width: 0.8"/>
       </g>
      </g>
      <g id="text_32">
       <!-- 220 -->
       <g transform="translate(300.06674 193.910637) scale(0.1 -0.1)">
        <use xlink:href="#DejaVuSans-32"/>
        <use xlink:href="#DejaVuSans-32" x="63.623047"/>
        <use xlink:href="#DejaVuSans-30" x="127.246094"/>
       </g>
      </g>
     </g>
     <g id="ytick_16">
      <g id="line2d_37">
       <g>
        <use xlink:href="#me0f1ea6153" x="326.15424" y="158.944582" style="stroke: #000000; stroke-width: 0.8"/>
       </g>
      </g>
      <g id="text_33">
       <!-- 230 -->
       <g transform="translate(300.06674 162.743801) scale(0.1 -0.1)">
        <use xlink:href="#DejaVuSans-32"/>
        <use xlink:href="#DejaVuSans-33" x="63.623047"/>
        <use xlink:href="#DejaVuSans-30" x="127.246094"/>
       </g>
      </g>
     </g>
     <g id="ytick_17">
      <g id="line2d_38">
       <g>
        <use xlink:href="#me0f1ea6153" x="326.15424" y="127.777745" style="stroke: #000000; stroke-width: 0.8"/>
       </g>
      </g>
      <g id="text_34">
       <!-- 240 -->
       <g transform="translate(300.06674 131.576964) scale(0.1 -0.1)">
        <use xlink:href="#DejaVuSans-32"/>
        <use xlink:href="#DejaVuSans-34" x="63.623047"/>
        <use xlink:href="#DejaVuSans-30" x="127.246094"/>
       </g>
      </g>
     </g>
     <g id="ytick_18">
      <g id="line2d_39">
       <g>
        <use xlink:href="#me0f1ea6153" x="326.15424" y="96.610909" style="stroke: #000000; stroke-width: 0.8"/>
       </g>
      </g>
      <g id="text_35">
       <!-- 250 -->
       <g transform="translate(300.06674 100.410128) scale(0.1 -0.1)">
        <use xlink:href="#DejaVuSans-32"/>
        <use xlink:href="#DejaVuSans-35" x="63.623047"/>
        <use xlink:href="#DejaVuSans-30" x="127.246094"/>
       </g>
      </g>
     </g>
    </g>
    <g id="line2d_40">
     <path d="M 335.870435 -1 
L 335.823741 129.377025 
L 335.672765 310.071145 
L 335.601492 346.6 
" clip-path="url(#p1c6f886d54)" style="fill: none; stroke: #ff0000; stroke-width: 1.5; stroke-linecap: square"/>
    </g>
    <g id="line2d_41">
     <path d="M 337.751485 -1 
L 338.222742 133.597911 
L 339.420646 314.854268 
L 339.768688 346.6 
" clip-path="url(#p1c6f886d54)" style="fill: none; stroke: #0000ff; stroke-width: 1.5; stroke-linecap: square"/>
    </g>
    <g id="line2d_42">
     <path d="M 354.556592 -1 
L 354.083623 123.951462 
L 352.740919 303.577737 
L 352.162472 346.6 
" clip-path="url(#p1c6f886d54)" style="fill: none; stroke: #ffc0cb; stroke-width: 1.5; stroke-linecap: square"/>
    </g>
    <g id="line2d_43">
     <path d="M 335.592147 -1 
L 335.495296 129.738768 
L 335.301735 310.759018 
L 335.266625 346.6 
" clip-path="url(#p1c6f886d54)" style="fill: none; stroke: #008000; stroke-width: 1.5; stroke-linecap: square"/>
    </g>
    <g id="patch_13">
     <path d="M 326.15424 252.445091 
L 326.15424 96.610909 
" style="fill: none; stroke: #000000; stroke-linejoin: miter; stroke-linecap: square"/>
    </g>
    <g id="patch_14">
     <path d="M 360.43776 252.445091 
L 360.43776 96.610909 
" style="fill: none; stroke: #000000; stroke-linejoin: miter; stroke-linecap: square"/>
    </g>
    <g id="patch_15">
     <path d="M 326.15424 252.445091 
L 360.43776 252.445091 
" style="fill: none; stroke: #000000; stroke-linejoin: miter; stroke-linecap: square"/>
    </g>
    <g id="patch_16">
     <path d="M 326.15424 96.610909 
L 360.43776 96.610909 
" style="fill: none; stroke: #000000; stroke-linejoin: miter; stroke-linecap: square"/>
    </g>
    <g id="text_36">
     <!-- Low ω -->
     <g transform="translate(324.548813 90.610909) scale(0.12 -0.12)">
      <defs>
       <path id="DejaVuSans-4c" d="M 628 4666 
L 1259 4666 
L 1259 531 
L 3531 531 
L 3531 0 
L 628 0 
L 628 4666 
z
" transform="scale(0.015625)"/>
       <path id="DejaVuSans-6f" d="M 1959 3097 
Q 1497 3097 1228 2736 
Q 959 2375 959 1747 
Q 959 1119 1226 758 
Q 1494 397 1959 397 
Q 2419 397 2687 759 
Q 2956 1122 2956 1747 
Q 2956 2369 2687 2733 
Q 2419 3097 1959 3097 
z
M 1959 3584 
Q 2709 3584 3137 3096 
Q 3566 2609 3566 1747 
Q 3566 888 3137 398 
Q 2709 -91 1959 -91 
Q 1206 -91 779 398 
Q 353 888 353 1747 
Q 353 2609 779 3096 
Q 1206 3584 1959 3584 
z
" transform="scale(0.015625)"/>
       <path id="DejaVuSans-77" d="M 269 3500 
L 844 3500 
L 1563 769 
L 2278 3500 
L 2956 3500 
L 3675 769 
L 4391 3500 
L 4966 3500 
L 4050 0 
L 3372 0 
L 2619 2869 
L 1863 0 
L 1184 0 
L 269 3500 
z
" transform="scale(0.015625)"/>
      </defs>
      <use xlink:href="#DejaVuSans-4c"/>
      <use xlink:href="#DejaVuSans-6f" x="53.962891"/>
      <use xlink:href="#DejaVuSans-77" x="115.144531"/>
      <use xlink:href="#DejaVuSans-20" x="196.931641"/>
      <use xlink:href="#DejaVuSans-3c9" x="228.71875"/>
     </g>
    </g>
   </g>
   <g id="legend_1">
    <g id="patch_17">
     <path d="M 68.348281 322.151595 
L 403.971719 322.151595 
Q 405.971719 322.151595 405.971719 320.151595 
L 405.971719 306.195345 
Q 405.971719 304.195345 403.971719 304.195345 
L 68.348281 304.195345 
Q 66.348281 304.195345 66.348281 306.195345 
L 66.348281 320.151595 
Q 66.348281 322.151595 68.348281 322.151595 
z
" style="fill: #ffffff; opacity: 0.8; stroke: #cccccc; stroke-linejoin: miter"/>
    </g>
    <g id="line2d_44">
     <path d="M 70.348281 312.293783 
L 80.348281 312.293783 
L 90.348281 312.293783 
" style="fill: none; stroke: #ff0000; stroke-width: 1.5; stroke-linecap: square"/>
    </g>
    <g id="text_37">
     <!-- lin -->
     <g transform="translate(98.348281 315.793783) scale(0.1 -0.1)">
      <defs>
       <path id="DejaVuSans-6c" d="M 603 4863 
L 1178 4863 
L 1178 0 
L 603 0 
L 603 4863 
z
" transform="scale(0.015625)"/>
       <path id="DejaVuSans-6e" d="M 3513 2113 
L 3513 0 
L 2938 0 
L 2938 2094 
Q 2938 2591 2744 2837 
Q 2550 3084 2163 3084 
Q 1697 3084 1428 2787 
Q 1159 2491 1159 1978 
L 1159 0 
L 581 0 
L 581 3500 
L 1159 3500 
L 1159 2956 
Q 1366 3272 1645 3428 
Q 1925 3584 2291 3584 
Q 2894 3584 3203 3211 
Q 3513 2838 3513 2113 
z
" transform="scale(0.015625)"/>
      </defs>
      <use xlink:href="#DejaVuSans-6c"/>
      <use xlink:href="#DejaVuSans-69" x="27.783203"/>
      <use xlink:href="#DejaVuSans-6e" x="55.566406"/>
     </g>
    </g>
    <g id="line2d_45">
     <path d="M 130.242031 312.293783 
L 140.242031 312.293783 
L 150.242031 312.293783 
" style="fill: none; stroke: #0000ff; stroke-width: 1.5; stroke-linecap: square"/>
    </g>
    <g id="text_38">
     <!-- lin_pert -->
     <g transform="translate(158.242031 315.793783) scale(0.1 -0.1)">
      <defs>
       <path id="DejaVuSans-5f" d="M 3263 -1063 
L 3263 -1509 
L -63 -1509 
L -63 -1063 
L 3263 -1063 
z
" transform="scale(0.015625)"/>
       <path id="DejaVuSans-70" d="M 1159 525 
L 1159 -1331 
L 581 -1331 
L 581 3500 
L 1159 3500 
L 1159 2969 
Q 1341 3281 1617 3432 
Q 1894 3584 2278 3584 
Q 2916 3584 3314 3078 
Q 3713 2572 3713 1747 
Q 3713 922 3314 415 
Q 2916 -91 2278 -91 
Q 1894 -91 1617 61 
Q 1341 213 1159 525 
z
M 3116 1747 
Q 3116 2381 2855 2742 
Q 2594 3103 2138 3103 
Q 1681 3103 1420 2742 
Q 1159 2381 1159 1747 
Q 1159 1113 1420 752 
Q 1681 391 2138 391 
Q 2594 391 2855 752 
Q 3116 1113 3116 1747 
z
" transform="scale(0.015625)"/>
       <path id="DejaVuSans-72" d="M 2631 2963 
Q 2534 3019 2420 3045 
Q 2306 3072 2169 3072 
Q 1681 3072 1420 2755 
Q 1159 2438 1159 1844 
L 1159 0 
L 581 0 
L 581 3500 
L 1159 3500 
L 1159 2956 
Q 1341 3275 1631 3429 
Q 1922 3584 2338 3584 
Q 2397 3584 2469 3576 
Q 2541 3569 2628 3553 
L 2631 2963 
z
" transform="scale(0.015625)"/>
       <path id="DejaVuSans-74" d="M 1172 4494 
L 1172 3500 
L 2356 3500 
L 2356 3053 
L 1172 3053 
L 1172 1153 
Q 1172 725 1289 603 
Q 1406 481 1766 481 
L 2356 481 
L 2356 0 
L 1766 0 
Q 1100 0 847 248 
Q 594 497 594 1153 
L 594 3053 
L 172 3053 
L 172 3500 
L 594 3500 
L 594 4494 
L 1172 4494 
z
" transform="scale(0.015625)"/>
      </defs>
      <use xlink:href="#DejaVuSans-6c"/>
      <use xlink:href="#DejaVuSans-69" x="27.783203"/>
      <use xlink:href="#DejaVuSans-6e" x="55.566406"/>
      <use xlink:href="#DejaVuSans-5f" x="118.945312"/>
      <use xlink:href="#DejaVuSans-70" x="168.945312"/>
      <use xlink:href="#DejaVuSans-65" x="232.421875"/>
      <use xlink:href="#DejaVuSans-72" x="293.945312"/>
      <use xlink:href="#DejaVuSans-74" x="335.058594"/>
     </g>
    </g>
    <g id="line2d_46">
     <path d="M 215.668594 312.293783 
L 225.668594 312.293783 
L 235.668594 312.293783 
" style="fill: none; stroke: #ffc0cb; stroke-width: 1.5; stroke-linecap: square"/>
    </g>
    <g id="text_39">
     <!-- lin_pert_21 -->
     <g transform="translate(243.668594 315.793783) scale(0.1 -0.1)">
      <use xlink:href="#DejaVuSans-6c"/>
      <use xlink:href="#DejaVuSans-69" x="27.783203"/>
      <use xlink:href="#DejaVuSans-6e" x="55.566406"/>
      <use xlink:href="#DejaVuSans-5f" x="118.945312"/>
      <use xlink:href="#DejaVuSans-70" x="168.945312"/>
      <use xlink:href="#DejaVuSans-65" x="232.421875"/>
      <use xlink:href="#DejaVuSans-72" x="293.945312"/>
      <use xlink:href="#DejaVuSans-74" x="335.058594"/>
      <use xlink:href="#DejaVuSans-5f" x="374.267578"/>
      <use xlink:href="#DejaVuSans-32" x="424.267578"/>
      <use xlink:href="#DejaVuSans-31" x="487.890625"/>
     </g>
    </g>
    <g id="line2d_47">
     <path d="M 318.820156 312.293783 
L 328.820156 312.293783 
L 338.820156 312.293783 
" style="fill: none; stroke: #008000; stroke-width: 1.5; stroke-linecap: square"/>
    </g>
    <g id="text_40">
     <!-- lin_pert_22 -->
     <g transform="translate(346.820156 315.793783) scale(0.1 -0.1)">
      <use xlink:href="#DejaVuSans-6c"/>
      <use xlink:href="#DejaVuSans-69" x="27.783203"/>
      <use xlink:href="#DejaVuSans-6e" x="55.566406"/>
      <use xlink:href="#DejaVuSans-5f" x="118.945312"/>
      <use xlink:href="#DejaVuSans-70" x="168.945312"/>
      <use xlink:href="#DejaVuSans-65" x="232.421875"/>
      <use xlink:href="#DejaVuSans-72" x="293.945312"/>
      <use xlink:href="#DejaVuSans-74" x="335.058594"/>
      <use xlink:href="#DejaVuSans-5f" x="374.267578"/>
      <use xlink:href="#DejaVuSans-32" x="424.267578"/>
      <use xlink:href="#DejaVuSans-32" x="487.890625"/>
     </g>
    </g>
   </g>
  </g>
 </g>
 <defs>
  <clipPath id="peb4977ed10">
   <rect x="57.6" y="77.131636" width="357.12" height="194.792727"/>
  </clipPath>
  <clipPath id="pd24b8be3f7">
   <rect x="93.312" y="98.721164" width="132.1344" height="132.1344"/>
  </clipPath>
  <clipPath id="p1c6f886d54">
   <rect x="326.15424" y="96.610909" width="34.28352" height="155.834182"/>
  </clipPath>
 </defs>
</svg>
